<?xml version="1.0" standalone="no"?><!DOCTYPE svg PUBLIC "-//W3C//DTD SVG 1.1//EN" "http://www.w3.org/Graphics/SVG/1.1/DTD/svg11.dtd"><svg t="1739524523384" class="icon" viewBox="0 0 1024 1024" version="1.1" xmlns="http://www.w3.org/2000/svg" p-id="3300" xmlns:xlink="http://www.w3.org/1999/xlink" width="128" height="128"><path d="M948.9 264.3l-195.1-194C708.5 24.9 648.2 0 584.1 0S459.8 24.9 414.4 70.3l-47.8 48.2c-9.2 9.4-17.7 19.7-25.2 30.6-29.4 3-56.9 16-77.9 37l-64.2 64.2-30 30.4c-42.4 42.5-69.1 96.5-77.1 156.1-7.7 57.1 2.6 113.8 29.6 164.4L29 682c-13.6 9.9-22.3 25.2-23.8 42-2 22 6 43.5 21.8 58.9l219 219c13.9 14.3 32.7 22.1 52.3 22.1 2.2 0 4.4-0.1 6.6-0.3 16.8-1.5 32.1-10.2 42-23.8l90.4-104c98.4 34.8 208.8 10.1 283-63.9l228.1-228.1c45.4-45.3 70.5-105.6 70.6-169.7 0.1-64.2-24.8-124.5-70.1-169.9zM553.5 509.9l-9 9c-36.3 36.3-95.3 36.3-131.6 0l-81.7-81.7-0.5-0.5c-12.3-10.6-31-9.1-41.5 3.2-9.5 11.1-9.5 27.2 0 38.3l0.2 0.3 81.9 81.9c18.4 18.3 41.3 31.7 66.3 38.8 23.4 6.6 48.1 7.4 71.8 2.5l49.8 49.8c45.3 45.3 106.5 70.1 169.4 70.1 5.5 0 10.9-0.2 16.4-0.6l-67.6 68.2c-40.3 40.2-93.8 62.3-150.7 62.3-56.9 0-110.5-22.1-150.8-62.3L210.3 623.6c-40.2-40.3-62.3-93.8-62.3-150.8 0-56.9 22.1-110.5 62.3-150.8l93.9-93.9c13.2-13.2 30.8-20.5 49.5-20.6h0.1c18.7 0 36.2 7.3 49.5 20.5l150.2 150.2c36.2 36.4 36.2 95.4 0 131.7z m14.3 67.1c6.6-4.6 12.9-9.8 18.7-15.5l9.1-9.1c59.2-59.2 59.3-155.4 0.3-214.7L445.5 187.5c-10.9-10.8-23.7-19.7-37.7-26.1l0.1-0.1 48.7-48.7c34.2-34.1 79.7-52.9 128-52.9s93.8 18.8 128 52.9l193.2 193.2c34.1 34.2 52.9 79.7 52.9 128s-18.8 93.7-52.9 128l-39.6 38.8-9.4 9.4c-34.2 34.1-79.7 52.9-128 52.9s-93.8-18.8-128-52.9l-33-33zM62.9 729.8l92.1-80.1c4.8 5.4 9.8 10.6 15 15.6l165.5 165.5 0.1 0.1c14.2 13.9 30 26.2 46.9 36.6L301 961.4l-2.6 3.4h-0.6c-4.2 0.2-8.3-1.5-11.1-4.6l-0.1-0.1-96.5-96.5L67.8 740.9l-0.3-0.3c-3-2.8-4.7-6.7-4.6-10.8z" p-id="3301" fill="#ffffff"></path></svg>