<?xml version="1.0" standalone="no"?><!DOCTYPE svg PUBLIC "-//W3C//DTD SVG 1.1//EN" "http://www.w3.org/Graphics/SVG/1.1/DTD/svg11.dtd"><svg t="1739429587763" class="icon" viewBox="0 0 1024 1024" version="1.1" xmlns="http://www.w3.org/2000/svg" p-id="1556" width="128" height="128" xmlns:xlink="http://www.w3.org/1999/xlink"><path d="M546.133333 785.066667c-3.413333 0-6.826667 0-6.826666-3.413334l-409.6-204.8c-6.826667-3.413333-10.24-10.24-10.24-13.653333 0-6.826667 3.413333-13.653333 10.24-13.653333l375.466666-204.8c3.413333-3.413333 10.24-3.413333 13.653334 0l409.6 170.666666c6.826667 3.413333 10.24 6.826667 10.24 13.653334s-3.413333 13.653333-6.826667 17.066666l-375.466667 238.933334H546.133333zM174.08 563.2L546.133333 747.52l341.333334-215.04-375.466667-153.6-337.92 184.32z" fill="#ffffff" p-id="1557"></path><path d="M546.133333 921.6c-3.413333 0-6.826667 0-6.826666-3.413333l-409.6-204.8c-6.826667-3.413333-10.24-10.24-10.24-13.653334v-375.466666c0-10.24 6.826667-17.066667 17.066666-17.066667s17.066667 6.826667 17.066667 17.066667v365.226666L546.133333 884.053333l358.4-228.693333V290.133333c0-10.24 6.826667-17.066667 17.066667-17.066666s17.066667 6.826667 17.066667 17.066666v375.466667c0 6.826667-3.413333 10.24-6.826667 13.653333l-375.466667 238.933334c-3.413333 3.413333-6.826667 3.413333-10.24 3.413333z" fill="#ffffff" p-id="1558"></path><path d="M546.133333 682.666667c-3.413333 0-6.826667 0-6.826666-3.413334l-409.6-204.8c-6.826667-3.413333-10.24-13.653333-6.826667-23.893333 3.413333-6.826667 13.653333-10.24 20.48-3.413333L546.133333 645.12l368.64-232.106667c6.826667-3.413333 17.066667-3.413333 23.893334 6.826667 3.413333 6.826667 3.413333 17.066667-6.826667 23.893333l-375.466667 238.933334H546.133333z" fill="#ffffff" p-id="1559"></path><path d="M546.133333 580.266667c-3.413333 0-6.826667 0-6.826666-3.413334l-409.6-204.8c-6.826667-3.413333-10.24-13.653333-6.826667-23.893333 3.413333-6.826667 13.653333-10.24 20.48-3.413333L546.133333 542.72l368.64-232.106667c6.826667-6.826667 17.066667-3.413333 20.48 3.413334 3.413333 6.826667 3.413333 17.066667-6.826666 23.893333l-375.466667 238.933333c0 3.413333-3.413333 3.413333-6.826667 3.413334z" fill="#ffffff" p-id="1560"></path><path d="M136.533333 375.466667c-6.826667 0-10.24-3.413333-13.653333-10.24-3.413333-6.826667 0-17.066667 6.826667-23.893334l375.466666-204.8h13.653334l409.6 170.666667c10.24 3.413333 13.653333 13.653333 10.24 23.893333-3.413333 10.24-13.653333 13.653333-23.893334 10.24L512 174.08 143.36 372.053333c0 3.413333-3.413333 3.413333-6.826667 3.413334z" fill="#ffffff" p-id="1561"></path><path d="M136.533333 477.866667c-6.826667 0-10.24-3.413333-13.653333-10.24-3.413333-6.826667 0-17.066667 6.826667-23.893334l375.466666-204.8h13.653334l409.6 170.666667c10.24 3.413333 13.653333 13.653333 10.24 23.893333-3.413333 10.24-13.653333 13.653333-23.893334 10.24L512 276.48 143.36 474.453333c0 3.413333-3.413333 3.413333-6.826667 3.413334z" fill="#ffffff" p-id="1562"></path><path d="M512 375.466667c-10.24 0-17.066667-6.826667-17.066667-17.066667v-238.933333c0-10.24 6.826667-17.066667 17.066667-17.066667s17.066667 6.826667 17.066667 17.066667v238.933333c0 10.24-6.826667 17.066667-17.066667 17.066667zM546.133333 785.066667c-10.24 0-17.066667-6.826667-17.066666-17.066667v-238.933333c0-10.24 6.826667-17.066667 17.066666-17.066667s17.066667 6.826667 17.066667 17.066667v238.933333c0 10.24-6.826667 17.066667-17.066667 17.066667z" fill="#ffffff" p-id="1563"></path></svg>