<?xml version="1.0" standalone="no"?><!DOCTYPE svg PUBLIC "-//W3C//DTD SVG 1.1//EN" "http://www.w3.org/Graphics/SVG/1.1/DTD/svg11.dtd"><svg t="1739430497572" class="icon" viewBox="0 0 1024 1024" version="1.1" xmlns="http://www.w3.org/2000/svg" p-id="18964" xmlns:xlink="http://www.w3.org/1999/xlink" width="128" height="128"><path d="M512 988.16c-78.848 0-143.36-64.512-143.36-143.36 0-17.408 13.312-30.72 30.72-30.72s30.72 13.312 30.72 30.72c0 45.056 36.864 81.92 81.92 81.92s81.92-36.864 81.92-81.92c0-17.408 13.312-30.72 30.72-30.72s30.72 13.312 30.72 30.72c0 78.848-64.512 143.36-143.36 143.36zM890.88 793.6H133.12c-45.056 0-81.92-36.864-81.92-81.92s36.864-81.92 81.92-81.92h62.464V403.456C195.584 229.376 337.92 87.04 512 87.04s316.416 142.336 316.416 316.416v226.304H890.88c45.056 0 81.92 36.864 81.92 81.92s-36.864 81.92-81.92 81.92z m-757.76-102.4c-11.264 0-20.48 9.216-20.48 20.48s9.216 20.48 20.48 20.48h757.76c11.264 0 20.48-9.216 20.48-20.48s-9.216-20.48-20.48-20.48h-93.184c-17.408 0-30.72-13.312-30.72-30.72V403.456c0-140.288-114.688-254.976-254.976-254.976S257.024 263.168 257.024 403.456v257.024c0 17.408-13.312 30.72-30.72 30.72H133.12z" p-id="18965" fill="#ffffff"></path><path d="M552.96 138.24h-81.92c-17.408 0-30.72-13.312-30.72-30.72 0-39.936 31.744-71.68 71.68-71.68s71.68 31.744 71.68 71.68c0 17.408-13.312 30.72-30.72 30.72z" p-id="18966" fill="#ffffff"></path></svg>