<?xml version="1.0" standalone="no"?><!DOCTYPE svg PUBLIC "-//W3C//DTD SVG 1.1//EN" "http://www.w3.org/Graphics/SVG/1.1/DTD/svg11.dtd"><svg t="1739430405429" class="icon" viewBox="0 0 1070 1024" version="1.1" xmlns="http://www.w3.org/2000/svg" p-id="16222" xmlns:xlink="http://www.w3.org/1999/xlink" width="133.75" height="128"><path d="M1031.121455 717.125818h-80.989091v-29.044363c0-16.290909-6.935273-23.272727-23.179637-23.272728H814.545455c-17.408 0-24.017455 6.609455-24.017455 24.436364v97.186909H305.664v-99.514182a19.735273 19.735273 0 0 0-21.690182-22.062545H167.749818a19.781818 19.781818 0 0 0-21.690182 22.062545v30.208H64.744727c-16.290909 0-23.272727 6.981818-23.272727 23.272727v200.61091c0 15.825455 6.981818 22.481455 22.900364 22.481454h81.687272v28.253091c0 16.663273 6.981818 23.272727 23.272728 23.272727h113.105454c16.244364 0 23.226182-6.981818 23.226182-23.272727v-97.978182h484.910545v97.186909c0 17.826909 6.609455 24.017455 24.436364 24.389818h110.359273c18.199273 0 24.808727-6.562909 24.808727-24.762181v-27.927273h82.106182c15.499636 0 22.062545-6.935273 22.062545-22.062546v-201.402181c-0.744727-15.080727-7.726545-22.062545-23.226181-22.062546z m-15.499637 38.725818v170.821819h-65.861818v-170.821819h65.861818z m-187.857454 223.092364v-275.362909h83.688727v275.362909h-83.688727z m-38.725819-154.903273v31.371637H304.872727v-31.371637h484.165818zM182.923636 978.944v-275.362909h85.969455v275.362909H182.923636z m-38.725818-223.092364v170.821819H78.289455v-170.821819h65.861818z" p-id="16223" fill="#ffffff"></path><path d="M803.374545 339.409455a27.089455 27.089455 0 0 0-48.779636-4.235637c-5.12 8.192-11.124364 15.825455-17.826909 22.807273V340.247273c-2.327273-24.436364-4.654545-49.570909-8.517818-74.007273a384.977455 384.977455 0 0 0-60.043637-159.557818A253.300364 253.300364 0 0 0 564.084364 16.756364a38.725818 38.725818 0 0 0-15.499637-3.537455 24.017455 24.017455 0 0 0-24.762182 23.272727v8.517819c0 15.080727-2.327273 30.208-4.654545 45.288727a276.945455 276.945455 0 0 1-36.398545 109.242182 206.056727 206.056727 0 0 1-17.82691 24.389818l-2.327272 3.118545-5.026909-4.654545c-9.309091-9.309091-17.826909-17.826909-27.136-25.972364a106.496 106.496 0 0 0-29.416728-16.616727 29.835636 29.835636 0 0 0-12.427636-2.746182 26.717091 26.717091 0 0 0-23.970909 15.127273A757.620364 757.620364 0 0 0 284.392727 390.516364a350.906182 350.906182 0 0 0 0 180.503272 232.448 232.448 0 0 0 128.186182 154.949819 26.391273 26.391273 0 0 0 34.117818-9.681455 21.690182 21.690182 0 0 0-10.472727-30.254545 188.974545 188.974545 0 0 1-83.269818-77.451637 232.354909 232.354909 0 0 1-28.299637-111.895273c0.698182-65.442909 14.848-130.048 41.425455-189.812363 7.773091-18.618182 16.709818-36.770909 25.227636-55.389091l7.726546-16.663273 14.708363 16.290909c7.354182 8.098909 14.336 15.872 20.945455 24.017455a31.744 31.744 0 0 0 22.807273 12.381091 33.698909 33.698909 0 0 0 19.781818-7.354182c18.432-13.498182 34.210909-30.301091 46.498909-49.570909a320.232727 320.232727 0 0 0 45.707636-125.114182c0-8.936727 2.699636-17.454545 3.863273-26.717091l15.499636 12.381091c35.374545 33.419636 60.974545 75.869091 74.007273 122.786909 18.618182 61.719273 26.437818 126.138182 23.179637 190.557091a27.554909 27.554909 0 0 0 7.77309 20.945455c4.654545 3.956364 10.519273 6.144 16.663273 6.190545a38.725818 38.725818 0 0 0 17.035637-5.073455c11.636364-6.562909 22.807273-14.708364 33.28-22.062545l8.936727-6.562909c0.186182 3.211636 0.186182 6.423273 0 9.681454 0 16.290909 4.235636 32.907636 5.026909 49.152a271.127273 271.127273 0 0 1-47.662546 168.913455 177.338182 177.338182 0 0 1-68.142545 61.579636 20.945455 20.945455 0 0 0-7.773091 27.461819v2.746181a25.181091 25.181091 0 0 0 33.326546 9.309091c4.328727-1.954909 8.471273-4.282182 12.38109-6.981818a244.037818 244.037818 0 0 0 90.298182-97.605818 342.807273 342.807273 0 0 0 16.244364-282.763636z" p-id="16224" fill="#ffffff"></path><path d="M720.896 474.298182a23.226182 23.226182 0 0 0-17.035636-6.237091 38.725818 38.725818 0 0 0-16.290909 3.863273l-38.725819 17.035636v-12.753455a450.56 450.56 0 0 0-12.753454-177.012363 362.356364 362.356364 0 0 0-19.781818-49.198546l-6.562909-15.080727a23.645091 23.645091 0 0 0-22.853819-13.963636h-3.909818a24.808727 24.808727 0 0 0-22.062545 17.035636l-2.327273 7.354182a193.675636 193.675636 0 0 1-95.278545 116.224l-10.053819-13.172364a26.344727 26.344727 0 0 0-22.481454-12.008727H427.752727a25.134545 25.134545 0 0 0-22.109091 16.663273 333.498182 333.498182 0 0 0-23.226181 202.565818 177.384727 177.384727 0 0 0 63.906909 106.868364c5.818182 4.654545 12.381091 8.936727 18.990545 13.172363a26.437818 26.437818 0 0 0 38.725818-9.681454 21.690182 21.690182 0 0 0-9.309091-28.672 124.695273 124.695273 0 0 1-52.270545-63.115637 222.301091 222.301091 0 0 1-11.636364-116.177454c0-14.336 5.026909-28.672 8.517818-43.380364V409.134545c4.654545 4.561455 10.891636 7.214545 17.454546 7.354182a38.725818 38.725818 0 0 0 20.898909-7.726545l10.472727-6.981818 21.690182-14.708364a212.247273 212.247273 0 0 0 77.451636-80.523636c11.170909 39.563636 15.918545 80.802909 13.963637 121.949091 0 18.990545-2.327273 38.725818-3.909818 56.92509 0 10.891636 0 22.109091-2.327273 32.954182a25.506909 25.506909 0 0 0 6.981818 22.434909 24.436364 24.436364 0 0 0 16.663273 6.237091 44.125091 44.125091 0 0 0 17.408-4.282182l34.490182-15.499636c-3.723636 14.661818-9.216 28.858182-16.290909 42.216727a166.167273 166.167273 0 0 1-53.806546 64.325819 21.317818 21.317818 0 0 0-7.773091 26.71709 26.344727 26.344727 0 0 0 38.772364 9.309091c4.142545-2.792727 8.145455-5.725091 12.008727-8.936727a235.054545 235.054545 0 0 0 67.770182-96.814545c9.821091-22.993455 15.592727-47.476364 17.035636-72.424728a26.344727 26.344727 0 0 0-7.354182-17.454545z" p-id="16225" fill="#ffffff"></path></svg>